<svg width="50" height="50" viewBox="0 0 50 50" fill="none" xmlns="http://www.w3.org/2000/svg">
<g id="Vector">
<path d="M50 25C50 38.8071 38.8071 50 25 50C11.1929 50 0 38.8071 0 25C0 11.1929 11.1929 0 25 0C38.8071 0 50 11.1929 50 25Z" fill="white"/>
<path d="M24.3691 11L8.6046 19.3924C7.79847 19.8216 7.79847 20.9503 8.6046 21.3795L23.8128 29.4757C24.1595 29.6603 24.5787 29.6603 24.9255 29.4757L37.0771 23.0054C37.8507 22.5935 38.7944 23.1395 38.7944 23.9989V31.7686C38.7944 32.3938 39.3141 32.9006 39.9553 32.9006H40.8391C41.4803 32.9006 42 32.3938 42 31.7686V20.386M14.8669 27.8395C14.0933 27.4275 13.1495 27.9734 13.1495 28.833V32.5106C13.1495 32.9246 13.3813 33.3056 13.7539 33.504L23.8127 38.8615C24.1595 39.0462 24.5788 39.0462 24.9256 38.8615L34.9844 33.504C35.357 33.3056 35.5888 32.9246 35.5888 32.5106V28.833C35.5888 27.9734 34.645 27.4275 33.8714 27.8395L24.9256 32.6042C24.5788 32.7889 24.1595 32.7889 23.8127 32.6042L14.8669 27.8395Z" fill="#024890"/>
</g>
</svg>
