<svg width="50" height="50" viewBox="0 0 50 50" fill="none" xmlns="http://www.w3.org/2000/svg">
<g id="Vector">
<path d="M50 25C50 38.8071 38.8071 50 25 50C11.1929 50 0 38.8071 0 25C0 11.1929 11.1929 0 25 0C38.8071 0 50 11.1929 50 25Z" fill="white"/>
<path d="M18 30.3544C18 30.0013 18.2782 29.715 18.6214 29.715H23.3786C23.7218 29.715 24 30.0013 24 30.3544V39.3606C24 39.7137 23.7218 40 23.3786 40H18.6214C18.2782 40 18 39.7137 18 39.3606V30.3544ZM10 36.5254C10 36.1723 10.2782 35.886 10.6214 35.886H15.3786C15.7218 35.886 16 36.1723 16 36.5254V39.3606C16 39.7137 15.7218 40 15.3786 40H10.6214C10.2782 40 10 39.7137 10 39.3606V36.5254ZM34 32.4114C34 32.0583 34.2782 31.772 34.6214 31.772H39.3786C39.7218 31.772 40 32.0583 40 32.4114V39.3606C40 39.7137 39.7218 40 39.3786 40H34.6214C34.2782 40 34 39.7137 34 39.3606V32.4114ZM26 26.2404C26 25.8873 26.2782 25.601 26.6214 25.601H31.3786C31.7218 25.601 32 25.8873 32 26.2404V39.3606C32 39.7137 31.7218 40 31.3786 40H26.6214C26.2782 40 26 39.7137 26 39.3606V26.2404ZM40 10.6406C40 10.0914 39.3714 9.79775 38.9696 10.1593L28.9016 17.2199C28.739 17.3662 28.5144 17.4151 28.3082 17.3492L18.0091 14.0572C17.8154 13.9953 17.6045 14.0346 17.4442 14.1624L9.24077 21.5007C9.08889 21.6218 9 21.8084 9 22.0061V24.2952C9 24.827 9.59417 25.1264 10.0024 24.8003L18.044 17.5775C18.2044 17.4494 18.4156 17.41 18.6095 17.472L29.0279 20.8048C29.2342 20.8708 29.4591 20.8218 29.6217 20.6753L39.7879 13.5165C39.9227 13.3951 40 13.2197 40 13.0354V10.6406Z" fill="#024890"/>
</g>
</svg>
