<svg width="24" height="24" viewBox="0 0 24 24" fill="none" xmlns="http://www.w3.org/2000/svg">
<g id="Vector">
<path d="M13.932 12.2916C13.9247 12.6717 13.8048 13.0412 13.5873 13.3531C13.3699 13.6649 13.0648 13.9053 12.7106 14.0435C12.3564 14.1818 11.9692 14.2118 11.5979 14.1297C11.2267 14.0476 10.8881 13.8572 10.6253 13.5825C10.3624 13.3078 10.187 12.9613 10.1213 12.5868C10.0556 12.2123 10.1025 11.8268 10.2562 11.479C10.4099 11.1312 10.6633 10.8369 10.9844 10.6334C11.3056 10.4298 11.6799 10.3262 12.06 10.3356C12.5651 10.3543 13.043 10.569 13.3925 10.9342C13.7419 11.2993 13.9354 11.7862 13.932 12.2916Z" fill="white" fill-opacity="0.8"/>
<path d="M15.3156 6.27967H8.80564C8.16149 6.27967 7.54372 6.53556 7.08824 6.99104C6.63276 7.44652 6.37687 8.06429 6.37687 8.70844V15.3648C6.37687 15.6837 6.43969 15.9995 6.56175 16.2942C6.68381 16.5889 6.86271 16.8566 7.08824 17.0822C7.31377 17.3077 7.58152 17.4866 7.87619 17.6086C8.17086 17.7307 8.48669 17.7935 8.80564 17.7935H15.3156C15.6345 17.7935 15.9503 17.7307 16.245 17.6086C16.5397 17.4866 16.8074 17.3077 17.033 17.0822C17.2585 16.8566 17.4374 16.5889 17.5594 16.2942C17.6815 15.9995 17.7443 15.6837 17.7443 15.3648V8.72044C17.7456 8.40057 17.6837 8.08359 17.5623 7.78768C17.4408 7.49176 17.2621 7.22273 17.0365 6.99599C16.8109 6.76924 16.5427 6.58926 16.2474 6.46634C15.9521 6.34342 15.6354 6.27998 15.3156 6.27967ZM12.06 15.5472C11.4156 15.5617 10.7814 15.3839 10.2385 15.0365C9.69553 14.689 9.26842 14.1877 9.01166 13.5964C8.7549 13.0052 8.68013 12.3508 8.7969 11.7169C8.91366 11.0829 9.21666 10.4982 9.66723 10.0372C10.1178 9.57623 10.6955 9.25996 11.3266 9.12876C11.9577 8.99756 12.6136 9.05737 13.2106 9.30057C13.8075 9.54377 14.3185 9.95932 14.6782 10.4942C15.038 11.0291 15.2302 11.659 15.2304 12.3036C15.2356 12.7249 15.1577 13.143 15.0011 13.5341C14.8445 13.9252 14.6124 14.2816 14.3179 14.5829C14.0234 14.8842 13.6724 15.1244 13.285 15.2899C12.8975 15.4553 12.4813 15.5428 12.06 15.5472ZM15.5832 9.06124C15.504 9.06125 15.4256 9.04547 15.3526 9.01481C15.2796 8.98415 15.2134 8.93923 15.158 8.88269C15.1026 8.82614 15.059 8.7591 15.0298 8.6855C15.0006 8.6119 14.9864 8.53321 14.988 8.45404C14.988 8.29301 15.0519 8.13857 15.1658 8.02469C15.2797 7.91082 15.4341 7.84685 15.5952 7.84685C15.7562 7.84685 15.9106 7.91082 16.0245 8.02469C16.1384 8.13857 16.2023 8.29301 16.2023 8.45404C16.2047 8.53977 16.1886 8.62499 16.1549 8.70389C16.1213 8.78278 16.0711 8.85348 16.0076 8.91114C15.9441 8.9688 15.8689 9.01207 15.7872 9.03798C15.7054 9.06388 15.6191 9.07182 15.534 9.06124H15.5832Z" fill="white" fill-opacity="0.8"/>
<path d="M12.06 0.000150207C8.87744 -0.0157626 5.81891 1.23324 3.55725 3.4724C1.29559 5.71155 0.016063 8.75744 0.000150207 11.94C-0.0157626 15.1226 1.23324 18.1811 3.4724 20.4427C5.71155 22.7044 8.75744 23.9839 11.94 23.9998C13.5158 24.0077 15.0778 23.7051 16.5367 23.1094C17.9956 22.5136 19.3229 21.6363 20.4427 20.5276C21.5626 19.4189 22.4531 18.1004 23.0635 16.6476C23.6738 15.1947 23.992 13.6358 23.9998 12.06C24.0077 10.4842 23.7051 8.92219 23.1094 7.46329C22.5136 6.00438 21.6363 4.67711 20.5276 3.55725C19.4189 2.43739 18.1004 1.54687 16.6476 0.936545C15.1947 0.326217 13.6358 0.00802942 12.06 0.000150207ZM19.3475 15.2424C19.3509 15.7807 19.2473 16.3144 19.0429 16.8124C18.8384 17.3104 18.5372 17.7629 18.1565 18.1437C17.7759 18.5244 17.3235 18.8258 16.8255 19.0304C16.3275 19.235 15.7939 19.3387 15.2556 19.3355H8.86684C8.32849 19.3389 7.79482 19.2353 7.29679 19.0309C6.79875 18.8264 6.34625 18.5252 5.96552 18.1445C5.58478 17.7639 5.28338 17.3115 5.0788 16.8135C4.87421 16.3155 4.7705 15.7819 4.77369 15.2436V8.85364C4.77035 8.31529 4.8739 7.78162 5.07834 7.28359C5.28278 6.78555 5.58404 6.33305 5.96466 5.95232C6.34529 5.57158 6.7977 5.27018 7.29568 5.0656C7.79365 4.86101 8.32728 4.7573 8.86564 4.76049H15.2556C15.7938 4.75731 16.3273 4.86097 16.8252 5.06548C17.3231 5.27 17.7755 5.57129 18.1561 5.95189C18.5367 6.3325 18.838 6.78486 19.0425 7.28276C19.247 7.78065 19.3507 8.31419 19.3475 8.85244V15.2424Z" fill="white" fill-opacity="0.8"/>
</g>
</svg>
