<?xml version="1.0" encoding="UTF-8" standalone="no"?>
<!-- Created with Inkscape (http://www.inkscape.org/) -->

<svg
   version="1.1"
   id="svg1"
   width="447.27725"
   height="321.41687"
   viewBox="0 0 447.27725 321.41687"
   xmlns="http://www.w3.org/2000/svg"
   xmlns:svg="http://www.w3.org/2000/svg">
  <defs
     id="defs1" />
  <g
     id="g1"
     transform="translate(-203.0176,-314.13928)">
    <path
       style="fill:#024890;fill-opacity:1;stroke:none"
       d="m 228.54569,315.70515 c -30.07505,5.42401 -35.45862,50.02588 -6,60.97607 10.92291,4.06018 23.5773,2.55945 35,2.55945 h 62 215 68 c 11.29465,0 24.26791,1.29944 34,-5.63812 23.22519,-16.55615 15.44846,-55.02429 -14,-58.18829 -25.72223,-2.76368 -53.11899,-0.17359 -79,-0.17359 h -157 -105 c -16.98526,0 -36.28309,-2.55041 -53,0.46448 m 0,128.00311 c -30.52669,5.72205 -34.97831,49.41602 -6,61.05402 10.13987,4.07226 22.31246,2.47839 33,2.47839 h 63 217 67 c 11.50003,0 23.97958,1.26147 33.98535,-5.59875 23.63614,-16.20569 15.09805,-55.1026 -13.98535,-58.22767 -26.04688,-2.79882 -53.79221,-0.17358 -80,-0.17358 h -159 -104 c -16.29727,0 -34.97893,-2.53546 -51,0.46759 m 0,128 c -30.32242,5.68378 -35.21654,49.69922 -6,61.06482 10.49793,4.0838 22.96398,2.46759 34,2.46759 h 62 216 66 c 12.19119,0 25.26605,1.44635 35.99615,-5.54858 24.15992,-15.74988 14.60367,-55.20472 -13.99615,-58.27784 -26.04684,-2.79876 -53.79221,-0.17358 -80,-0.17358 h -159 -104 c -16.29727,0 -34.97894,-2.53546 -51,0.46759 z"
       id="path1" />
  </g>
</svg>
