<svg width="50" height="50" viewBox="0 0 50 50" fill="none" xmlns="http://www.w3.org/2000/svg">
<g id="Vector">
<path d="M50 25C50 38.8071 38.8071 50 25 50C11.1929 50 0 38.8071 0 25C0 11.1929 11.1929 0 25 0C38.8071 0 50 11.1929 50 25Z" fill="white"/>
<path d="M23.39 31.3034C23.6129 31.3118 23.7874 31.4986 23.7784 31.7202L23.5202 38.0302L23.5192 38.041C23.4994 38.2579 23.3089 38.4194 23.0903 38.4044L15.7944 37.9025C15.355 37.866 14.9461 37.6745 14.5678 37.328C14.1894 36.9815 13.9026 36.5833 13.7073 36.1334C13.5731 35.8051 13.4846 35.4707 13.4419 35.1303C13.3992 34.7899 13.4236 34.3947 13.5151 33.9448C13.6066 33.4949 13.6799 33.1606 13.7348 32.9417C13.7897 32.7228 13.9209 32.3338 14.1284 31.7745C14.2261 31.511 14.3036 31.3002 14.3607 31.1419C14.4293 30.9519 14.6258 30.8305 14.8276 30.8525C16.037 30.9842 18.8911 31.1345 23.39 31.3034ZM16.4662 20.6214C16.6159 20.6272 16.75 20.7153 16.8142 20.85L19.4141 26.3034C19.5866 26.6652 19.1774 27.0271 18.8363 26.8144L17.605 26.0468C17.4373 25.9422 17.2178 25.9742 17.0894 26.1239C16.4119 26.9137 15.8063 27.706 15.2726 28.5007C14.6807 29.3822 14.2382 30.1421 13.9453 30.7805C13.6524 31.4188 13.4114 31.9933 13.2222 32.504C13.033 33.0147 12.9201 33.3977 12.8835 33.653C12.8592 33.7802 12.6874 33.8061 12.6263 33.6917L9.33182 27.5249C9.12434 27.2088 9.01449 26.8684 9.00229 26.5036C8.99008 26.1388 9.0267 25.8531 9.11213 25.6464L9.25859 25.3181C9.653 24.6109 10.2763 23.5823 11.1285 22.2325C11.2477 22.0436 11.1897 21.7939 10.9987 21.677L10.0924 21.1224C9.73945 20.9064 9.90516 20.3647 10.3193 20.3809L16.4662 20.6214ZM38.2419 30.4532C38.5888 30.3174 38.9189 30.683 38.7462 31.0116L35.8046 36.6076C35.6581 36.9602 35.4353 37.2429 35.1363 37.4557C34.8373 37.6685 34.5718 37.7931 34.3399 37.8296L34.0104 37.9025C33.2106 37.9811 32.0104 38.0493 30.4099 38.1071C30.1853 38.1152 30.01 38.3042 30.0209 38.5275L30.0724 39.579C30.0926 39.9912 29.5489 40.1608 29.3288 39.811L26.0657 34.624C25.9864 34.4979 25.9839 34.3385 26.0591 34.21L29.105 29.0041C29.3076 28.6578 29.8392 28.7891 29.8554 29.1894L29.9136 30.6222C29.9218 30.8225 30.0777 30.9862 30.2785 31.0036C32.198 31.1694 33.8081 31.1893 35.1089 31.0632C36.488 30.9294 37.5255 30.7288 38.2211 30.4613L38.2419 30.4532ZM24.637 12.9555C24.7716 13.1025 24.7871 13.3255 24.6745 13.4897C23.9921 14.4849 22.5099 16.9195 20.2282 20.7936C20.1155 20.9851 19.8673 21.0498 19.6752 20.9369L14.2199 17.731L14.2121 17.7261C14.0243 17.6079 13.9682 17.3607 14.0868 17.1737L17.9913 11.0193C18.2354 10.6424 18.6016 10.3688 19.0898 10.1986C19.578 10.0284 20.0662 9.96758 20.5544 10.0162C20.8473 10.0405 21.1432 10.1135 21.4423 10.2351C21.7413 10.3567 21.9976 10.4843 22.2112 10.6181C22.4248 10.7518 22.678 10.9524 22.971 11.2199C23.2639 11.4874 23.4836 11.6972 23.63 11.8492C23.7765 12.0011 23.9962 12.2413 24.2891 12.5696C24.4266 12.7237 24.5426 12.8523 24.637 12.9555ZM36.5185 19.0077C36.7106 18.8969 36.9569 18.9615 37.0688 19.1522L40.7476 25.4275C40.9673 25.8774 41.0436 26.3395 40.9764 26.8137C40.9093 27.2878 40.7415 27.7377 40.473 28.1633C40.3143 28.4065 40.1129 28.6314 39.8688 28.8381C39.6247 29.0448 39.3928 29.215 39.1731 29.3488C38.9534 29.4825 38.6575 29.6163 38.2852 29.75C37.913 29.8838 37.6262 29.981 37.4248 30.0418C37.2234 30.1026 36.9091 30.1877 36.4819 30.2972C36.2761 30.3499 36.1043 30.3941 35.9665 30.4299C35.7773 30.479 35.579 30.388 35.4877 30.2161C34.9212 29.1488 33.4272 26.712 31.0057 22.9057C30.8862 22.7178 30.9427 22.4683 31.1323 22.3506L36.5185 19.0077ZM34.0467 14.331C34.1577 14.5255 34.4073 14.5927 34.6013 14.4797L35.512 13.9494C35.8702 13.7408 36.2731 14.1426 36.0624 14.4984L32.9438 19.7659C32.8679 19.8941 32.7269 19.9699 32.5776 19.9628L26.5325 19.6753C26.1299 19.6562 26.0021 19.1258 26.3522 18.9272L27.6143 18.2111C27.7868 18.1132 27.8621 17.9048 27.7892 17.721C27.4078 16.7593 26.9917 15.8568 26.5409 15.0135C26.0405 14.0773 25.5798 13.3265 25.1587 12.7611C24.7376 12.1957 24.344 11.7093 23.9779 11.302C23.6117 10.8947 23.3249 10.612 23.1174 10.4539C23.0169 10.3773 23.0715 10.2175 23.1982 10.2178L30.2207 10.2351C30.5991 10.1986 30.953 10.2624 31.2826 10.4266C31.6121 10.5907 31.8501 10.764 31.9966 10.9464L32.198 11.2199C32.6374 11.9046 33.2536 12.9417 34.0467 14.331Z" fill="#024890"/>
</g>
</svg>
