<svg width="50" height="50" viewBox="0 0 50 50" fill="none" xmlns="http://www.w3.org/2000/svg">
<g id="Vector">
<path d="M50 25C50 38.8071 38.8071 50 25 50C11.1929 50 0 38.8071 0 25C0 11.1929 11.1929 0 25 0C38.8071 0 50 11.1929 50 25Z" fill="white"/>
<path d="M20.7143 15.5984C20.7143 16.0043 21.0399 16.3333 21.4416 16.3333H28.5584C28.9601 16.3333 29.2857 16.0043 29.2857 15.5984V14.9016C29.2857 14.4957 28.9601 14.1667 28.5584 14.1667H21.4416C21.0399 14.1667 20.7143 14.4957 20.7143 14.9016V15.5984ZM39.2727 27.1667C39.6744 27.1667 40 27.4957 40 27.9016V35.2917C40 36.0365 39.7377 36.674 39.2132 37.2044C38.6886 37.7348 38.058 38 37.3214 38H12.6786C11.942 38 11.3114 37.7348 10.7868 37.2044C10.2623 36.674 10 36.0365 10 35.2917V27.9016C10 27.4957 10.3256 27.1667 10.7273 27.1667H20.5227C20.9244 27.1667 21.25 27.4957 21.25 27.9016V29.875C21.25 30.1684 21.356 30.4223 21.5681 30.6367C21.7801 30.8511 22.0312 30.9583 22.3214 30.9583H27.6786C27.9688 30.9583 28.2199 30.8511 28.4319 30.6367C28.644 30.4223 28.75 30.1684 28.75 29.875V27.9016C28.75 27.4957 29.0756 27.1667 29.4773 27.1667H39.2727ZM26.4156 27.1667C26.8172 27.1667 27.1429 27.4957 27.1429 27.9016V28.5984C27.1429 29.0043 26.8172 29.3333 26.4156 29.3333H23.5844C23.1828 29.3333 22.8571 29.0043 22.8571 28.5984V27.9016C22.8571 27.4957 23.1828 27.1667 23.5844 27.1667H26.4156ZM40 19.0417V24.8067C40 25.2126 39.6744 25.5417 39.2727 25.5417H10.7273C10.3256 25.5417 10 25.2126 10 24.8067V19.0417C10 18.2969 10.2623 17.6593 10.7868 17.1289C11.3114 16.5985 11.942 16.3333 12.6786 16.3333H17.8442C18.2458 16.3333 18.5714 16.0043 18.5714 15.5984V13.625C18.5714 13.1736 18.7277 12.7899 19.0402 12.474C19.3527 12.158 19.7321 12 20.1786 12H29.8214C30.2679 12 30.6473 12.158 30.9598 12.474C31.2723 12.7899 31.4286 13.1736 31.4286 13.625V15.5984C31.4286 16.0043 31.7542 16.3333 32.1558 16.3333H37.3214C38.058 16.3333 38.6886 16.5985 39.2132 17.1289C39.7377 17.6593 40 18.2969 40 19.0417Z" fill="#024890"/>
</g>
</svg>
