<?xml version="1.0" encoding="UTF-8"?>
<!DOCTYPE svg PUBLIC "-//W3C//DTD SVG 1.1//EN" "http://www.w3.org/Graphics/SVG/1.1/DTD/svg11.dtd">
<!-- Creator: CorelDRAW -->
<svg xmlns="http://www.w3.org/2000/svg" xml:space="preserve" width="241.723mm" height="48.545mm" version="1.1" style="shape-rendering:geometricPrecision; text-rendering:geometricPrecision; image-rendering:optimizeQuality; fill-rule:evenodd; clip-rule:evenodd"
viewBox="0 0 23950.36 4809.92"
 xmlns:xlink="http://www.w3.org/1999/xlink"
 xmlns:xodm="http://www.corel.com/coreldraw/odm/2003">
 <defs>
  <style type="text/css">
   <![CDATA[
    .fil1 {fill:#4C51C6}
    .fil0 {fill:#FE830C;fill-rule:nonzero}
   ]]>
  </style>
 </defs>
 <g id="Слой_x0020_1">
  <metadata id="CorelCorpID_0Corel-Layer"/>
  <g id="_1858188973168">
   <path class="fil0" d="M5922.93 3666.81c-25.11,0 -49,-3.06 -71.66,-9.79 -23.27,-6.74 -43.49,-17.77 -60.63,-33.08 -17.17,-15.31 -29.41,-35.52 -36.76,-60.63l37.97 0c7.97,17.77 18.38,32.47 32.47,42.87 14.08,10.41 29.4,18.38 47.16,22.65 17.14,4.91 34.29,7.36 51.44,7.36 18.99,0 37.35,-3.06 55.12,-9.18 17.76,-5.52 31.84,-14.7 42.86,-26.96 11.04,-12.25 16.55,-28.17 16.55,-48.37 0,-15.93 -3.06,-28.78 -9.18,-38.59 -6.75,-9.79 -15.32,-17.77 -25.72,-23.89 -11.02,-5.51 -23.89,-10.4 -37.98,-14.7 -10.41,-3.06 -21.44,-6.1 -32.46,-9.17 -11.02,-2.46 -21.44,-4.9 -31.84,-7.97 -10.42,-3.06 -20.83,-6.13 -30.02,-9.19 -12.85,-3.66 -25.1,-7.96 -37.35,-13.47 -12.87,-5.51 -23.89,-12.26 -33.07,-20.21 -9.79,-7.96 -17.77,-18.38 -23.27,-30.01 -6.13,-11.64 -9.17,-26.34 -9.17,-43.49 0,-17.77 2.45,-33.06 7.96,-45.93 5.51,-12.86 12.85,-23.89 22.66,-33.07 9.8,-9.17 20.83,-16.54 33.68,-22.05 12.87,-5.51 26.34,-9.18 41.03,-12.25 14.09,-2.45 28.78,-3.69 44.1,-3.69 23.27,0 45.33,3.07 65.54,9.81 20.21,6.74 37.36,17.15 51.44,31.84 14.08,14.7 23.27,34.29 26.95,59.42l-35.52 0c-4.3,-17.77 -11.64,-31.25 -22.66,-41.65 -11.64,-10.4 -24.5,-17.77 -39.82,-22.05 -15.3,-4.29 -30.62,-6.74 -46.55,-6.74 -12.85,0 -25.72,1.23 -38.57,3.68 -12.87,3.06 -25.12,7.34 -36.15,13.48 -11.02,6.12 -20.2,14.08 -26.95,24.5 -6.73,10.4 -10.4,23.87 -10.4,39.8 0,15.91 3.68,28.78 10.4,39.19 6.75,10.42 15.32,18.38 26.34,24.51 10.42,6.12 22.66,11.63 36.15,15.92 17.77,5.52 36.74,10.41 55.73,14.7 18.98,4.28 37.36,9.79 54.5,15.3 12.26,3.69 23.89,8.58 34.29,14.09 10.42,6.12 19.6,13.49 27.57,21.44 7.96,7.96 14.08,17.14 18.36,27.56 4.3,10.4 6.75,22.66 6.75,35.51 0,22.67 -4.28,41.65 -12.26,56.97 -8.57,15.31 -20.21,28.17 -34.29,37.97 -14.09,9.79 -30.62,16.54 -48.38,20.83 -17.77,4.89 -36.76,6.73 -56.35,6.73zm244.98 -4.89l0 -433.01 34.92 0 0 433.01 -34.92 0zm146.38 0l0 -433.01 47.77 0 260.92 388.91 0 -388.91 34.91 0 0 433.01 -45.93 0 -262.74 -388.91 0 388.91 -34.92 0zm629 4.89c-44.09,0 -80.84,-9.79 -109.62,-28.78 -29.4,-18.98 -51.45,-44.7 -65.54,-77.78 -14.69,-32.46 -22.04,-69.21 -22.65,-110.24 -0.62,-31.85 3.68,-61.25 11.63,-88.82 7.96,-26.94 19.6,-50.83 36.15,-71.66 16.53,-20.2 36.74,-36.74 61.85,-48.37 24.5,-11.64 53.29,-17.17 86.37,-17.17 26.93,0 51.43,3.69 74.09,11.04 22.06,7.96 41.04,18.98 57.57,34.3 15.93,15.31 28.19,34.29 36.76,58.18l-39.8 0c-6.75,-15.93 -16.55,-29.4 -29.4,-40.43 -12.87,-10.41 -28.19,-18.99 -45.34,-24.5 -17.14,-5.51 -34.91,-7.96 -53.27,-7.96 -28.19,0 -52.67,4.89 -72.88,15.32 -20.23,10.4 -36.76,24.48 -49.61,42.25 -12.87,17.77 -22.68,38.59 -28.19,61.24 -6.12,23.27 -9.18,47.79 -9.18,74.12 0,34.29 5.53,65.52 17.16,94.31 11.02,28.78 28.78,51.46 52.66,68.6 23.89,17.15 53.9,25.72 91.25,25.72 31.23,0 58.19,-6.12 80.25,-18.99 21.42,-12.24 38.57,-30 50.2,-52.67 11.64,-22.66 17.77,-49.6 18.38,-80.23l-148.83 0 0 -31.23 181.3 0 0 28.17c0,36.74 -7.36,69.2 -22.07,96.77 -14.69,28.17 -35.5,50.22 -62.46,65.52 -27.56,15.32 -59.41,23.27 -96.77,23.27zm268.88 -4.89l0 -433.01 34.92 0 0 401.16 248.05 0 0 31.84 -282.97 0zm349.1 0l0 -433.01 282.96 0 0 31.84 -248.05 0 0 170.26 222.93 0 0 31.84 -222.93 0 0 167.21 248.05 0 0 31.84 -282.96 0zm535.9 0l0 -433.01 34.92 0 0 433.01 -34.92 0zm146.38 0l0 -433.01 47.77 0 260.92 388.91 0 -388.91 34.91 0 0 433.01 -45.93 0 -262.74 -388.91 0 388.91 -34.92 0zm555.5 0l0 -401.16 -145.14 0 0 -31.84 325.21 0 0 31.84 -145.14 0 0 401.16 -34.92 0zm246.84 0l0 -433.01 282.96 0 0 31.84 -248.05 0 0 170.26 222.92 0 0 31.84 -222.92 0 0 167.21 248.05 0 0 31.84 -282.96 0zm544.47 4.89c-44.1,0 -80.84,-9.79 -109.62,-28.78 -29.4,-18.98 -51.45,-44.7 -65.54,-77.78 -14.7,-32.46 -22.05,-69.21 -22.66,-110.24 -0.61,-31.85 3.69,-61.25 11.64,-88.82 7.96,-26.94 19.59,-50.83 36.14,-71.66 16.54,-20.2 36.75,-36.74 61.85,-48.37 24.51,-11.64 53.3,-17.17 86.37,-17.17 26.94,0 51.44,3.69 74.1,11.04 22.06,7.96 41.04,18.98 57.57,34.3 15.93,15.31 28.19,34.29 36.76,58.18l-39.8 0c-6.75,-15.93 -16.56,-29.4 -29.41,-40.43 -12.86,-10.41 -28.18,-18.99 -45.33,-24.5 -17.14,-5.51 -34.91,-7.96 -53.28,-7.96 -28.18,0 -52.67,4.89 -72.87,15.32 -20.23,10.4 -36.76,24.48 -49.61,42.25 -12.87,17.77 -22.68,38.59 -28.19,61.24 -6.12,23.27 -9.18,47.79 -9.18,74.12 0,34.29 5.52,65.52 17.16,94.31 11.02,28.78 28.78,51.46 52.65,68.6 23.89,17.15 53.91,25.72 91.26,25.72 31.23,0 58.18,-6.12 80.25,-18.99 21.42,-12.24 38.57,-30 50.2,-52.67 11.64,-22.66 17.77,-49.6 18.38,-80.23l-148.83 0 0 -31.23 181.29 0 0 28.17c0,36.74 -7.35,69.2 -22.06,96.77 -14.69,28.17 -35.51,50.22 -62.46,65.52 -27.56,15.32 -59.41,23.27 -96.77,23.27zm268.88 -4.89l0 -433.01 159.23 0c22.66,0 43.49,2.45 62.48,6.73 18.36,4.9 34.29,12.25 47.76,22.67 12.87,10.4 23.27,23.88 30.64,40.43 6.73,17.14 10.4,37.97 10.4,61.86 0,22.66 -4.28,42.26 -12.25,58.79 -7.97,16.55 -20.21,30.64 -35.51,41.65 -15.32,11.02 -33.7,18.99 -55.13,23.89l94.32 177 -38.59 0 -91.86 -170.88 -136.58 0 0 170.88 -34.91 0zm34.91 -202.12l107.19 0c17.14,0 33.68,-1.22 49.61,-4.28 15.92,-2.45 30.01,-7.36 42.86,-14.7 12.26,-7.35 22.06,-17.77 29.4,-31.23 6.75,-12.87 10.42,-30.01 10.42,-50.84 0.6,-25.11 -4.29,-45.32 -14.7,-59.4 -10.41,-14.1 -25.12,-24.5 -42.88,-30.01 -18.36,-5.52 -39.8,-8.58 -63.69,-8.58l-118.2 0 0 199.05zm319.09 202.12l167.21 -433.01 44.7 0 168.43 433.01 -39.2 0 -37.97 -97.39 -227.22 0 -37.35 97.39 -38.59 0zm87.58 -128.62l203.95 0 -101.67 -268.26 -102.28 268.26z"/>
   <polygon class="fil0" points="10727.47,3661.91 10727.47,3260.75 10582.33,3260.75 10582.33,3228.91 10907.54,3228.91 10907.54,3260.75 10762.39,3260.75 10762.39,3661.91 "/>
   <path class="fil0" d="M11145.17 3666.81c-44.71,0 -82.06,-9.79 -112.07,-28.78 -30.02,-18.98 -52.68,-45.32 -67.99,-79.01 -15.3,-33.06 -22.66,-71.04 -22.66,-113.31 0,-42.25 7.96,-80.23 23.27,-113.91 15.32,-33.68 37.97,-60.01 67.99,-79 30,-18.99 66.75,-28.8 111.46,-28.8 44.72,0 82.07,9.81 112.08,28.8 30.02,19.6 52.06,45.93 67.38,79 15.3,33.69 22.66,71.67 22.66,113.91 0,42.27 -7.36,79.63 -22.66,113.31 -15.32,33.69 -37.97,60.02 -67.99,79.01 -30.01,18.99 -66.75,28.78 -111.47,28.78zm0 -30.62c37.37,0 68.6,-8.57 93.09,-25.72 24.51,-17.14 42.89,-40.42 54.52,-69.22 11.63,-28.78 17.77,-60.63 17.77,-95.54 0,-26.34 -3.06,-50.82 -9.81,-74.09 -6.74,-22.66 -17.14,-42.89 -30.63,-60.64 -13.48,-17.76 -30.62,-31.24 -51.44,-41.64 -20.83,-9.81 -45.32,-14.7 -73.5,-14.7 -37.36,0 -68.59,8.57 -93.1,26.34 -25.11,17.77 -43.49,40.43 -55.12,69.21 -12.24,28.78 -18.36,60.63 -18.36,95.53 0,34.31 6.12,66.16 18.36,94.94 12.26,28.78 30.63,52.06 55.73,69.21 24.5,17.77 55.12,26.34 92.48,26.34zm289.71 25.72l0 -433.01 159.23 0c22.65,0 43.48,2.45 62.47,6.73 18.37,4.9 34.3,12.25 47.77,22.67 12.87,10.4 23.27,23.88 30.64,40.43 6.72,17.14 10.4,37.97 10.4,61.86 0,22.66 -4.28,42.26 -12.26,58.79 -7.96,16.55 -20.21,30.64 -35.51,41.65 -15.32,11.02 -33.7,18.99 -55.12,23.89l94.31 177 -38.58 0 -91.87 -170.88 -136.57 0 0 170.88 -34.91 0zm34.91 -202.12l107.18 0c17.15,0 33.68,-1.22 49.61,-4.28 15.93,-2.45 30.01,-7.36 42.87,-14.7 12.25,-7.35 22.06,-17.77 29.4,-31.23 6.74,-12.87 10.42,-30.01 10.42,-50.84 0.59,-25.11 -4.3,-45.32 -14.7,-59.4 -10.42,-14.1 -25.12,-24.5 -42.88,-30.01 -18.36,-5.52 -39.81,-8.58 -63.7,-8.58l-118.19 0 0 199.05zm531.61 202.12l0 -433.01 282.96 0 0 31.84 -248.05 0 0 185.57 213.74 0 0 31.85 -213.74 0 0 183.74 -34.91 0zm542.63 4.89c-44.7,0 -82.06,-9.79 -112.07,-28.78 -30.02,-18.98 -52.67,-45.32 -67.99,-79.01 -15.3,-33.06 -22.66,-71.04 -22.66,-113.31 0,-42.25 7.96,-80.23 23.27,-113.91 15.32,-33.68 37.98,-60.01 67.99,-79 30,-18.99 66.76,-28.8 111.46,-28.8 44.72,0 82.07,9.81 112.09,28.8 30.01,19.6 52.06,45.93 67.37,79 15.31,33.69 22.66,71.67 22.66,113.91 0,42.27 -7.35,79.63 -22.66,113.31 -15.31,33.69 -37.97,60.02 -67.98,79.01 -30.02,18.99 -66.76,28.78 -111.48,28.78zm0 -30.62c37.37,0 68.6,-8.57 93.1,-25.72 24.5,-17.14 42.88,-40.42 54.51,-69.22 11.64,-28.78 17.77,-60.63 17.77,-95.54 0,-26.34 -3.06,-50.82 -9.81,-74.09 -6.74,-22.66 -17.14,-42.89 -30.63,-60.64 -13.47,-17.76 -30.62,-31.24 -51.44,-41.64 -20.83,-9.81 -45.32,-14.7 -73.5,-14.7 -37.35,0 -68.59,8.57 -93.1,26.34 -25.11,17.77 -43.48,40.43 -55.12,69.21 -12.24,28.78 -18.36,60.63 -18.36,95.53 0,34.31 6.12,66.16 18.36,94.94 12.26,28.78 30.64,52.06 55.73,69.21 24.51,17.77 55.13,26.34 92.48,26.34zm289.71 25.72l0 -433.01 159.23 0c22.66,0 43.49,2.45 62.48,6.73 18.36,4.9 34.29,12.25 47.76,22.67 12.87,10.4 23.27,23.88 30.64,40.43 6.72,17.14 10.4,37.97 10.4,61.86 0,22.66 -4.28,42.26 -12.26,58.79 -7.96,16.55 -20.21,30.64 -35.51,41.65 -15.31,11.02 -33.69,18.99 -55.12,23.89l94.32 177 -38.59 0 -91.87 -170.88 -136.57 0 0 170.88 -34.91 0zm34.91 -202.12l107.18 0c17.15,0 33.68,-1.22 49.61,-4.28 15.93,-2.45 30.02,-7.36 42.87,-14.7 12.25,-7.35 22.06,-17.77 29.4,-31.23 6.74,-12.87 10.42,-30.01 10.42,-50.84 0.59,-25.11 -4.3,-45.32 -14.7,-59.4 -10.42,-14.1 -25.12,-24.5 -42.88,-30.01 -18.36,-5.52 -39.8,-8.58 -63.69,-8.58l-118.2 0 0 199.05zm632.05 202.12l0 -401.16 -145.15 0 0 -31.84 325.22 0 0 31.84 -145.15 0 0 401.16 -34.91 0zm246.83 0l0 -433.01 34.91 0 0 205.17 263.35 0 0 -205.17 34.92 0 0 433.01 -34.92 0 0 -196.6 -263.35 0 0 196.6 -34.91 0zm444.64 0l0 -433.01 282.97 0 0 31.84 -248.05 0 0 170.26 222.92 0 0 31.84 -222.92 0 0 167.21 248.05 0 0 31.84 -282.97 0zm709.84 4.89c-44.72,0 -82.07,-9.79 -110.85,-28.78 -29.4,-18.98 -51.44,-45.32 -65.52,-79.01 -14.09,-33.06 -21.44,-71.04 -21.44,-113.31 0,-42.25 7.35,-79.6 22.04,-113.3 14.1,-33.06 36.15,-59.4 66.16,-79.01 29.4,-19.6 66.76,-29.41 111.46,-29.41 26.34,0 50.22,3.69 72.29,11.64 21.42,7.98 40.42,18.99 55.71,34.31 15.32,15.3 26.34,34.29 33.7,57.57l-36.15 0c-9.79,-23.89 -25.72,-42.27 -47.76,-54.5 -22.66,-12.26 -48.4,-18.38 -77.18,-18.38 -37.97,0 -69.2,8.57 -93.09,26.34 -24.49,17.77 -42.26,40.43 -53.89,69.21 -11.64,28.78 -17.77,60.01 -17.77,94.33 0,34.29 5.51,66.14 17.15,94.92 11.63,29.4 29.4,52.67 53.89,70.44 23.89,17.77 55.12,26.34 92.49,26.34 18.97,0 36.74,-2.45 54.5,-7.96 17.76,-5.53 33.07,-13.49 46.55,-24.5 13.47,-11.03 23.26,-24.51 29.4,-40.43l39.8 0c-7.96,22.66 -20.83,41.65 -37.35,56.95 -17.15,15.32 -37.36,26.95 -60.01,34.92 -22.68,7.97 -47.79,11.63 -74.12,11.63zm255.39 -4.89l0 -433.01 159.23 0c22.66,0 43.49,2.45 62.48,6.73 18.37,4.9 34.29,12.25 47.77,22.67 12.87,10.4 23.27,23.88 30.63,40.43 6.73,17.14 10.4,37.97 10.4,61.86 0,22.66 -4.27,42.26 -12.25,58.79 -7.96,16.55 -20.21,30.64 -35.51,41.65 -15.32,11.02 -33.7,18.99 -55.12,23.89l94.31 177 -38.59 0 -91.86 -170.88 -136.57 0 0 170.88 -34.92 0zm34.92 -202.12l107.18 0c17.14,0 33.68,-1.22 49.61,-4.28 15.93,-2.45 30.01,-7.36 42.86,-14.7 12.26,-7.35 22.07,-17.77 29.41,-31.23 6.74,-12.87 10.41,-30.01 10.41,-50.84 0.6,-25.11 -4.29,-45.32 -14.69,-59.4 -10.42,-14.1 -25.13,-24.5 -42.88,-30.01 -18.37,-5.52 -39.81,-8.58 -63.7,-8.58l-118.19 0 0 199.05zm366.25 202.12l0 -433.01 282.96 0 0 31.84 -248.04 0 0 170.26 222.92 0 0 31.84 -222.92 0 0 167.21 248.04 0 0 31.84 -282.96 0zm323.38 0l167.21 -433.01 44.7 0 168.43 433.01 -39.19 0 -37.98 -97.39 -227.22 0 -37.35 97.39 -38.59 0zm87.59 -128.62l203.95 0 -101.67 -268.26 -102.28 268.26z"/>
   <path class="fil0" d="M16396.22 3661.91l0 -401.16 -145.15 0 0 -31.84 325.22 0 0 31.84 -145.15 0 0 401.16 -34.91 0zm246.83 0l0 -433.01 34.91 0 0 433.01 -34.91 0zm325.22 4.89c-44.71,0 -82.06,-9.79 -112.08,-28.78 -30.01,-18.98 -52.67,-45.32 -67.98,-79.01 -15.31,-33.06 -22.66,-71.04 -22.66,-113.31 0,-42.25 7.96,-80.23 23.27,-113.91 15.31,-33.68 37.97,-60.01 67.99,-79 29.99,-18.99 66.75,-28.8 111.46,-28.8 44.72,0 82.07,9.81 112.08,28.8 30.02,19.6 52.06,45.93 67.38,79 15.3,33.69 22.66,71.67 22.66,113.91 0,42.27 -7.36,79.63 -22.66,113.31 -15.32,33.69 -37.97,60.02 -67.99,79.01 -30.01,18.99 -66.75,28.78 -111.47,28.78zm0 -30.62c37.37,0 68.6,-8.57 93.09,-25.72 24.51,-17.14 42.88,-40.42 54.52,-69.22 11.63,-28.78 17.77,-60.63 17.77,-95.54 0,-26.34 -3.06,-50.82 -9.81,-74.09 -6.74,-22.66 -17.15,-42.89 -30.64,-60.64 -13.47,-17.76 -30.61,-31.24 -51.43,-41.64 -20.83,-9.81 -45.32,-14.7 -73.5,-14.7 -37.36,0 -68.59,8.57 -93.1,26.34 -25.11,17.77 -43.49,40.43 -55.12,69.21 -12.24,28.78 -18.37,60.63 -18.37,95.53 0,34.31 6.13,66.16 18.37,94.94 12.25,28.78 30.63,52.06 55.73,69.21 24.5,17.77 55.12,26.34 92.48,26.34zm289.7 25.72l0 -433.01 47.77 0 260.92 388.91 0 -388.91 34.91 0 0 433.01 -45.93 0 -262.74 -388.91 0 388.91 -34.92 0zm573.27 0l167.21 -433.01 44.7 0 168.43 433.01 -39.19 0 -37.98 -97.39 -227.22 0 -37.35 97.39 -38.59 0zm87.59 -128.62l203.95 0 -101.67 -268.26 -102.28 268.26zm357.06 128.62l0 -433.01 47.76 0 260.92 388.91 0 -388.91 34.91 0 0 433.01 -45.92 0 -262.75 -388.91 0 388.91 -34.91 0zm455.06 0l0 -433.01 150.66 0c44.72,0 82.07,9.18 112.08,26.95 30,18.37 52.06,43.49 67.37,75.94 15.31,32.46 22.67,70.44 22.67,113.91 0,42.88 -7.36,80.25 -22.67,112.71 -15.31,32.45 -37.36,57.57 -67.37,75.94 -30.01,18.38 -67.37,27.56 -112.08,27.56l-150.66 0zm34.91 -31.84l110.86 0c38.58,0 70.44,-7.96 95.53,-23.27 25.11,-15.32 43.49,-37.36 56.36,-64.93 12.85,-27.55 18.97,-60.01 18.97,-96.16 0,-35.52 -6.12,-67.38 -18.38,-95.53 -12.24,-27.55 -30.62,-49.61 -55.12,-65.53 -24.48,-15.93 -55.73,-23.89 -93.1,-23.89l-115.13 0 0 369.32zm722.08 36.74c-25.11,0 -49,-3.06 -71.65,-9.79 -23.27,-6.74 -43.49,-17.77 -60.64,-33.08 -17.16,-15.31 -29.4,-35.52 -36.76,-60.63l37.98 0c7.96,17.77 18.38,32.47 32.46,42.87 14.09,10.41 29.41,18.38 47.16,22.65 17.15,4.91 34.3,7.36 51.44,7.36 18.99,0 37.36,-3.06 55.12,-9.18 17.77,-5.52 31.85,-14.7 42.87,-26.96 11.04,-12.25 16.55,-28.17 16.55,-48.37 0,-15.93 -3.06,-28.78 -9.18,-38.59 -6.75,-9.79 -15.32,-17.77 -25.72,-23.89 -11.03,-5.51 -23.89,-10.4 -37.98,-14.7 -10.42,-3.06 -21.44,-6.1 -32.46,-9.17 -11.03,-2.46 -21.44,-4.9 -31.85,-7.97 -10.41,-3.06 -20.82,-6.13 -30.01,-9.19 -12.85,-3.66 -25.11,-7.96 -37.35,-13.47 -12.87,-5.51 -23.89,-12.26 -33.08,-20.21 -9.79,-7.96 -17.77,-18.38 -23.27,-30.01 -6.12,-11.64 -9.17,-26.34 -9.17,-43.49 0,-17.77 2.45,-33.06 7.97,-45.93 5.51,-12.86 12.85,-23.89 22.65,-33.07 9.81,-9.17 20.83,-16.54 33.68,-22.05 12.87,-5.51 26.34,-9.18 41.04,-12.25 14.09,-2.45 28.78,-3.69 44.1,-3.69 23.27,0 45.33,3.07 65.54,9.81 20.21,6.74 37.35,17.15 51.44,31.84 14.08,14.7 23.27,34.29 26.95,59.42l-35.53 0c-4.29,-17.77 -11.63,-31.25 -22.65,-41.65 -11.64,-10.4 -24.51,-17.77 -39.82,-22.05 -15.31,-4.29 -30.62,-6.74 -46.55,-6.74 -12.85,0 -25.72,1.23 -38.57,3.68 -12.87,3.06 -25.13,7.34 -36.15,13.48 -11.02,6.12 -20.21,14.08 -26.95,24.5 -6.73,10.4 -10.4,23.87 -10.4,39.8 0,15.91 3.68,28.78 10.4,39.19 6.74,10.42 15.32,18.38 26.34,24.51 10.42,6.12 22.66,11.63 36.15,15.92 17.76,5.52 36.74,10.41 55.73,14.7 18.97,4.28 37.35,9.79 54.5,15.3 12.25,3.69 23.89,8.58 34.29,14.09 10.42,6.12 19.6,13.49 27.56,21.44 7.97,7.96 14.09,17.14 18.37,27.56 4.29,10.4 6.74,22.66 6.74,35.51 0,22.67 -4.28,41.65 -12.25,56.97 -8.58,15.31 -20.21,28.17 -34.3,37.97 -14.08,9.79 -30.62,16.54 -48.37,20.83 -17.77,4.89 -36.76,6.73 -56.36,6.73zm409.73 0c-39.19,0 -71.03,-7.96 -95.53,-24.49 -25.11,-16.55 -42.87,-38.58 -54.5,-67.37 -11.64,-28.17 -17.77,-60.64 -17.77,-97.4l0 -248.65 35.52 0 0 246.82c0,30.01 4.28,56.95 13.48,80.84 8.57,24.5 22.65,44.1 42.27,58.18 19.59,14.08 45.31,21.44 77.15,21.44 33.08,0 59.42,-7.36 78.4,-22.06 18.99,-14.09 33.07,-33.68 41.64,-58.18 7.97,-23.88 12.26,-50.83 12.26,-80.23l0 -246.82 35.51 0 0 248.65c0,36.76 -5.51,69.23 -17.15,97.4 -11.63,28.78 -29.4,50.82 -54.5,67.37 -25.1,16.54 -56.95,24.49 -96.77,24.49zm276.83 -4.89l0 -433.01 145.77 0c31.23,0 58.18,4.89 80.84,14.7 22.05,10.4 39.21,25.72 50.85,46.54 11.63,20.83 17.75,47.16 17.75,79.61 0,31.84 -6.73,58.18 -20.82,79.01 -14.1,21.44 -33.69,37.36 -57.58,47.79 -24.49,10.4 -52.06,15.91 -82.67,15.91l-99.22 0 0 149.44 -34.92 0zm34.92 -180.68l97.37 0c37.98,0 68.6,-9.19 91.88,-27.55 23.27,-17.77 34.92,-46.55 34.92,-86.37 0,-37.35 -10.42,-64.91 -30.64,-81.46 -20.21,-16.53 -49,-25.11 -85.74,-25.11l-107.79 0 0 220.49zm348.48 180.68l0 -433.01 145.77 0c31.23,0 58.18,4.89 80.84,14.7 22.05,10.4 39.21,25.72 50.85,46.54 11.63,20.83 17.75,47.16 17.75,79.61 0,31.84 -6.73,58.18 -20.82,79.01 -14.1,21.44 -33.69,37.36 -57.58,47.79 -24.49,10.4 -52.06,15.91 -82.67,15.91l-99.22 0 0 149.44 -34.92 0zm34.92 -180.68l97.37 0c37.98,0 68.6,-9.19 91.88,-27.55 23.27,-17.77 34.92,-46.55 34.92,-86.37 0,-37.35 -10.42,-64.91 -30.64,-81.46 -20.21,-16.53 -49,-25.11 -85.74,-25.11l-107.79 0 0 220.49zm527.31 185.57c-44.7,0 -82.06,-9.79 -112.07,-28.78 -30.01,-18.98 -52.67,-45.32 -67.99,-79.01 -15.3,-33.06 -22.66,-71.04 -22.66,-113.31 0,-42.25 7.96,-80.23 23.27,-113.91 15.32,-33.68 37.98,-60.01 67.99,-79 30,-18.99 66.76,-28.8 111.46,-28.8 44.72,0 82.07,9.81 112.09,28.8 30.01,19.6 52.06,45.93 67.38,79 15.3,33.69 22.65,71.67 22.65,113.91 0,42.27 -7.35,79.63 -22.65,113.31 -15.32,33.69 -37.98,60.02 -67.99,79.01 -30.02,18.99 -66.76,28.78 -111.48,28.78zm0 -30.62c37.37,0 68.6,-8.57 93.1,-25.72 24.5,-17.14 42.88,-40.42 54.51,-69.22 11.64,-28.78 17.77,-60.63 17.77,-95.54 0,-26.34 -3.06,-50.82 -9.8,-74.09 -6.75,-22.66 -17.15,-42.89 -30.64,-60.64 -13.47,-17.76 -30.62,-31.24 -51.44,-41.64 -20.83,-9.81 -45.31,-14.7 -73.5,-14.7 -37.35,0 -68.58,8.57 -93.1,26.34 -25.1,17.77 -43.48,40.43 -55.12,69.21 -12.24,28.78 -18.36,60.63 -18.36,95.53 0,34.31 6.12,66.16 18.36,94.94 12.26,28.78 30.64,52.06 55.74,69.21 24.5,17.77 55.12,26.34 92.47,26.34zm289.71 25.72l0 -433.01 159.23 0c22.66,0 43.49,2.45 62.48,6.73 18.36,4.9 34.29,12.25 47.76,22.67 12.87,10.4 23.27,23.88 30.64,40.43 6.73,17.14 10.4,37.97 10.4,61.86 0,22.66 -4.28,42.26 -12.26,58.79 -7.96,16.55 -20.2,30.64 -35.51,41.65 -15.31,11.02 -33.69,18.99 -55.12,23.89l94.32 177 -38.59 0 -91.86 -170.88 -136.58 0 0 170.88 -34.91 0zm34.91 -202.12l107.18 0c17.15,0 33.68,-1.22 49.61,-4.28 15.93,-2.45 30.02,-7.36 42.87,-14.7 12.26,-7.35 22.06,-17.77 29.4,-31.23 6.75,-12.87 10.42,-30.01 10.42,-50.84 0.59,-25.11 -4.3,-45.32 -14.7,-59.4 -10.41,-14.1 -25.12,-24.5 -42.88,-30.01 -18.36,-5.52 -39.8,-8.58 -63.69,-8.58l-118.2 0 0 199.05zm466.68 202.12l0 -401.16 -145.14 0 0 -31.84 325.21 0 0 31.84 -145.14 0 0 401.16 -34.92 0z"/>
   <path class="fil0" d="M5951.09 4422.28c-44.7,0 -82.05,-9.79 -112.07,-28.78 -30.01,-18.98 -52.67,-45.32 -67.99,-79.02 -15.3,-33.06 -22.65,-71.03 -22.65,-113.3 0,-42.25 7.96,-80.23 23.27,-113.92 15.31,-33.68 37.97,-60.01 67.99,-78.99 29.99,-18.99 66.75,-28.8 111.45,-28.8 44.72,0 82.08,9.81 112.09,28.8 30.02,19.59 52.06,45.92 67.38,78.99 15.3,33.7 22.66,71.68 22.66,113.92 0,42.27 -7.36,79.62 -22.66,113.3 -15.32,33.7 -37.98,60.03 -67.99,79.02 -30.01,18.99 -66.76,28.78 -111.48,28.78zm0 -30.62c37.38,0 68.61,-8.58 93.1,-25.72 24.5,-17.15 42.88,-40.43 54.52,-69.22 11.63,-28.79 17.77,-60.64 17.77,-95.54 0,-26.34 -3.07,-50.83 -9.81,-74.1 -6.75,-22.65 -17.15,-42.88 -30.64,-60.63 -13.47,-17.77 -30.62,-31.25 -51.43,-41.65 -20.83,-9.8 -45.32,-14.69 -73.51,-14.69 -37.35,0 -68.58,8.57 -93.09,26.34 -25.11,17.76 -43.49,40.42 -55.12,69.2 -12.24,28.78 -18.37,60.64 -18.37,95.54 0,34.31 6.13,66.16 18.37,94.94 12.25,28.78 30.63,52.06 55.73,69.21 24.5,17.76 55.12,26.34 92.47,26.34zm289.71 25.72l0 -433.01 282.97 0 0 31.84 -248.05 0 0 185.57 213.74 0 0 31.84 -213.74 0 0 183.75 -34.92 0zm679.83 4.89c-25.11,0 -49,-3.07 -71.66,-9.79 -23.27,-6.75 -43.48,-17.77 -60.63,-33.08 -17.16,-15.32 -29.4,-35.52 -36.76,-60.63l37.98 0c7.96,17.77 18.38,32.46 32.46,42.86 14.09,10.42 29.4,18.38 47.16,22.66 17.15,4.91 34.29,7.36 51.44,7.36 18.99,0 37.35,-3.06 55.12,-9.19 17.77,-5.51 31.84,-14.69 42.87,-26.95 11.04,-12.26 16.55,-28.17 16.55,-48.38 0,-15.93 -3.06,-28.78 -9.19,-38.58 -6.74,-9.79 -15.32,-17.77 -25.72,-23.89 -11.02,-5.52 -23.89,-10.41 -37.97,-14.7 -10.42,-3.06 -21.44,-6.11 -32.47,-9.17 -11.02,-2.46 -21.44,-4.9 -31.84,-7.98 -10.42,-3.06 -20.83,-6.12 -30.01,-9.18 -12.85,-3.67 -25.11,-7.96 -37.36,-13.47 -12.86,-5.52 -23.89,-12.26 -33.07,-20.21 -9.79,-7.96 -17.77,-18.38 -23.27,-30.02 -6.12,-11.63 -9.17,-26.34 -9.17,-43.48 0,-17.77 2.45,-33.06 7.96,-45.93 5.51,-12.87 12.85,-23.89 22.66,-33.07 9.81,-9.17 20.83,-16.54 33.68,-22.05 12.87,-5.51 26.34,-9.19 41.04,-12.26 14.08,-2.45 28.78,-3.68 44.1,-3.68 23.27,0 45.33,3.06 65.54,9.81 20.2,6.74 37.35,17.14 51.43,31.84 14.09,14.69 23.27,34.29 26.96,59.41l-35.53 0c-4.29,-17.76 -11.63,-31.24 -22.66,-41.64 -11.63,-10.41 -24.5,-17.77 -39.82,-22.05 -15.3,-4.29 -30.62,-6.74 -46.55,-6.74 -12.85,0 -25.71,1.23 -38.57,3.68 -12.86,3.06 -25.12,7.34 -36.14,13.47 -11.03,6.12 -20.21,14.09 -26.95,24.5 -6.73,10.41 -10.41,23.88 -10.41,39.81 0,15.91 3.69,28.78 10.41,39.19 6.74,10.42 15.31,18.38 26.34,24.5 10.41,6.13 22.65,11.64 36.14,15.93 17.77,5.51 36.74,10.4 55.74,14.7 18.97,4.28 37.35,9.79 54.5,15.3 12.25,3.68 23.89,8.57 34.29,14.08 10.42,6.13 19.59,13.49 27.56,21.44 7.96,7.97 14.09,17.15 18.36,27.57 4.3,10.4 6.75,22.66 6.75,35.51 0,22.67 -4.28,41.65 -12.26,56.96 -8.57,15.32 -20.2,28.17 -34.29,37.98 -14.08,9.79 -30.62,16.53 -48.38,20.83 -17.76,4.89 -36.75,6.73 -56.35,6.73z"/>
   <polygon class="fil0" points="7259.87,4417.38 7259.87,4016.22 7114.72,4016.22 7114.72,3984.37 7439.93,3984.37 7439.93,4016.22 7294.78,4016.22 7294.78,4417.38 "/>
   <path class="fil0" d="M7428.88 4417.38l167.21 -433.01 44.7 0 168.43 433.01 -39.2 0 -37.97 -97.4 -227.22 0 -37.36 97.4 -38.58 0zm87.58 -128.63l203.95 0 -101.67 -268.25 -102.28 268.25z"/>
   <path class="fil0" d="M7943.32 4417.38l0 -401.16 -145.14 0 0 -31.84 325.21 0 0 31.84 -145.14 0 0 401.16 -34.92 0zm246.84 0l0 -433.01 282.96 0 0 31.84 -248.05 0 0 170.25 222.93 0 0 31.85 -222.93 0 0 167.2 248.05 0 0 31.85 -282.96 0zm535.9 0l0 -433.01 34.91 0 0 433.01 -34.91 0zm146.38 0l0 -433.01 47.76 0 260.92 388.91 0 -388.91 34.92 0 0 433.01 -45.93 0 -262.75 -388.92 0 388.92 -34.91 0zm455.06 0l0 -433.01 282.96 0 0 31.84 -248.05 0 0 185.57 213.75 0 0 31.84 -213.75 0 0 183.75 -34.91 0zm542.63 4.89c-44.7,0 -82.05,-9.79 -112.07,-28.78 -30.01,-18.98 -52.67,-45.32 -67.99,-79.02 -15.3,-33.06 -22.66,-71.03 -22.66,-113.3 0,-42.25 7.97,-80.23 23.27,-113.92 15.32,-33.68 37.98,-60.01 67.99,-78.99 30,-18.99 66.76,-28.8 111.46,-28.8 44.72,0 82.08,9.81 112.09,28.8 30.01,19.59 52.06,45.92 67.38,78.99 15.3,33.7 22.66,71.68 22.66,113.92 0,42.27 -7.36,79.62 -22.66,113.3 -15.32,33.7 -37.98,60.03 -67.99,79.02 -30.02,18.99 -66.76,28.78 -111.48,28.78zm0 -30.62c37.37,0 68.6,-8.58 93.1,-25.72 24.5,-17.15 42.88,-40.43 54.52,-69.22 11.63,-28.79 17.76,-60.64 17.76,-95.54 0,-26.34 -3.06,-50.83 -9.8,-74.1 -6.75,-22.65 -17.15,-42.88 -30.64,-60.63 -13.47,-17.77 -30.62,-31.25 -51.44,-41.65 -20.83,-9.8 -45.31,-14.69 -73.5,-14.69 -37.35,0 -68.58,8.57 -93.09,26.34 -25.11,17.76 -43.49,40.42 -55.13,69.2 -12.24,28.78 -18.36,60.64 -18.36,95.54 0,34.31 6.12,66.16 18.36,94.94 12.26,28.78 30.64,52.06 55.74,69.21 24.5,17.76 55.12,26.34 92.47,26.34zm289.71 25.72l0 -433.01 159.23 0c22.66,0 43.49,2.45 62.48,6.72 18.36,4.91 34.29,12.26 47.76,22.68 12.87,10.4 23.27,23.87 30.64,40.42 6.73,17.15 10.4,37.98 10.4,61.87 0,22.66 -4.28,42.25 -12.25,58.79 -7.97,16.55 -20.21,30.63 -35.51,41.65 -15.32,11.02 -33.7,18.99 -55.13,23.89l94.32 177 -38.59 0 -91.86 -170.88 -136.58 0 0 170.88 -34.91 0zm34.91 -202.13l107.19 0c17.14,0 33.68,-1.21 49.61,-4.27 15.92,-2.45 30.01,-7.36 42.86,-14.7 12.26,-7.36 22.06,-17.77 29.4,-31.23 6.75,-12.87 10.42,-30.02 10.42,-50.84 0.6,-25.11 -4.29,-45.32 -14.7,-59.4 -10.41,-14.11 -25.12,-24.51 -42.88,-30.02 -18.36,-5.51 -39.8,-8.57 -63.69,-8.57l-118.2 0 0 199.04zm366.26 202.13l0 -433.01 51.44 0 152.51 263.96 150.05 -263.96 50.22 0 0 433.01 -34.92 0 0 -393.82 -157.4 276.22 -17.15 0 -159.85 -276.22 0 393.82 -34.91 0zm468.53 0l167.21 -433.01 44.71 0 168.42 433.01 -39.19 0 -37.98 -97.4 -227.22 0 -37.35 97.4 -38.59 0zm87.59 -128.63l203.95 0 -101.67 -268.25 -102.28 268.25z"/>
   <path class="fil0" d="M11543.84 4417.38l0 -401.16 -145.15 0 0 -31.84 325.22 0 0 31.84 -145.15 0 0 401.16 -34.91 0zm246.83 0l0 -433.01 34.91 0 0 433.01 -34.91 0zm325.22 4.89c-44.71,0 -82.06,-9.79 -112.08,-28.78 -30.01,-18.98 -52.67,-45.32 -67.98,-79.02 -15.31,-33.06 -22.66,-71.03 -22.66,-113.3 0,-42.25 7.96,-80.23 23.27,-113.92 15.31,-33.68 37.97,-60.01 67.99,-78.99 29.99,-18.99 66.75,-28.8 111.46,-28.8 44.72,0 82.07,9.81 112.08,28.8 30.02,19.59 52.06,45.92 67.38,78.99 15.3,33.7 22.66,71.68 22.66,113.92 0,42.27 -7.36,79.62 -22.66,113.3 -15.32,33.7 -37.97,60.03 -67.99,79.02 -30.01,18.99 -66.75,28.78 -111.47,28.78zm0 -30.62c37.37,0 68.6,-8.58 93.09,-25.72 24.51,-17.15 42.88,-40.43 54.52,-69.22 11.63,-28.79 17.77,-60.64 17.77,-95.54 0,-26.34 -3.06,-50.83 -9.81,-74.1 -6.74,-22.65 -17.15,-42.88 -30.63,-60.63 -13.48,-17.77 -30.62,-31.25 -51.44,-41.65 -20.83,-9.8 -45.32,-14.69 -73.5,-14.69 -37.36,0 -68.59,8.57 -93.1,26.34 -25.11,17.76 -43.49,40.42 -55.12,69.2 -12.24,28.78 -18.37,60.64 -18.37,95.54 0,34.31 6.13,66.16 18.37,94.94 12.25,28.78 30.63,52.06 55.73,69.21 24.5,17.76 55.12,26.34 92.48,26.34zm289.7 25.72l0 -433.01 47.77 0 260.92 388.91 0 -388.91 34.91 0 0 433.01 -45.93 0 -262.74 -388.92 0 388.92 -34.92 0zm771.09 4.89c-25.11,0 -49,-3.07 -71.66,-9.79 -23.27,-6.75 -43.48,-17.77 -60.63,-33.08 -17.16,-15.32 -29.4,-35.52 -36.76,-60.63l37.98 0c7.96,17.77 18.38,32.46 32.46,42.86 14.09,10.42 29.4,18.38 47.16,22.66 17.15,4.91 34.29,7.36 51.44,7.36 18.99,0 37.35,-3.06 55.12,-9.19 17.77,-5.51 31.84,-14.69 42.87,-26.95 11.04,-12.26 16.55,-28.17 16.55,-48.38 0,-15.93 -3.06,-28.78 -9.19,-38.58 -6.74,-9.79 -15.32,-17.77 -25.72,-23.89 -11.02,-5.52 -23.89,-10.41 -37.97,-14.7 -10.42,-3.06 -21.44,-6.11 -32.47,-9.17 -11.02,-2.46 -21.44,-4.9 -31.84,-7.98 -10.42,-3.06 -20.83,-6.12 -30.01,-9.18 -12.85,-3.67 -25.11,-7.96 -37.36,-13.47 -12.86,-5.52 -23.89,-12.26 -33.07,-20.21 -9.79,-7.96 -17.77,-18.38 -23.27,-30.02 -6.12,-11.63 -9.17,-26.34 -9.17,-43.48 0,-17.77 2.45,-33.06 7.96,-45.93 5.51,-12.87 12.85,-23.89 22.66,-33.07 9.81,-9.17 20.83,-16.54 33.68,-22.05 12.87,-5.51 26.34,-9.19 41.04,-12.26 14.08,-2.45 28.78,-3.68 44.1,-3.68 23.27,0 45.33,3.06 65.54,9.81 20.2,6.74 37.35,17.14 51.43,31.84 14.09,14.69 23.27,34.29 26.96,59.41l-35.53 0c-4.29,-17.76 -11.63,-31.24 -22.66,-41.64 -11.63,-10.41 -24.5,-17.77 -39.82,-22.05 -15.3,-4.29 -30.62,-6.74 -46.55,-6.74 -12.85,0 -25.71,1.23 -38.57,3.68 -12.86,3.06 -25.12,7.34 -36.14,13.47 -11.03,6.12 -20.21,14.09 -26.96,24.5 -6.72,10.41 -10.4,23.88 -10.4,39.81 0,15.91 3.69,28.78 10.4,39.19 6.75,10.42 15.32,18.38 26.35,24.5 10.41,6.13 22.65,11.64 36.14,15.93 17.77,5.51 36.74,10.4 55.74,14.7 18.97,4.28 37.35,9.79 54.5,15.3 12.25,3.68 23.89,8.57 34.29,14.08 10.42,6.13 19.59,13.49 27.56,21.44 7.96,7.97 14.09,17.15 18.36,27.57 4.3,10.4 6.75,22.66 6.75,35.51 0,22.67 -4.28,41.65 -12.26,56.96 -8.57,15.32 -20.2,28.17 -34.29,37.98 -14.08,9.79 -30.62,16.53 -48.38,20.83 -17.76,4.89 -36.75,6.73 -56.35,6.73z"/>
   <polygon class="fil0" points="13518.34,4417.38 13518.34,4254.46 13364.61,3984.37 13406.27,3984.37 13536.1,4218.94 13665.95,3984.37 13705.76,3984.37 13553.24,4253.85 13553.24,4417.38 "/>
   <path class="fil0" d="M13910.91 4422.28c-25.11,0 -49,-3.07 -71.66,-9.79 -23.27,-6.75 -43.49,-17.77 -60.63,-33.08 -17.16,-15.32 -29.4,-35.52 -36.76,-60.63l37.98 0c7.96,17.77 18.37,32.46 32.46,42.86 14.08,10.42 29.4,18.38 47.16,22.66 17.15,4.91 34.29,7.36 51.44,7.36 18.99,0 37.35,-3.06 55.12,-9.19 17.77,-5.51 31.84,-14.69 42.86,-26.95 11.04,-12.26 16.56,-28.17 16.56,-48.38 0,-15.93 -3.07,-28.78 -9.19,-38.58 -6.74,-9.79 -15.32,-17.77 -25.72,-23.89 -11.02,-5.52 -23.89,-10.41 -37.97,-14.7 -10.42,-3.06 -21.44,-6.11 -32.47,-9.17 -11.02,-2.46 -21.44,-4.9 -31.84,-7.98 -10.42,-3.06 -20.83,-6.12 -30.01,-9.18 -12.86,-3.67 -25.11,-7.96 -37.36,-13.47 -12.87,-5.52 -23.89,-12.26 -33.07,-20.21 -9.79,-7.96 -17.77,-18.38 -23.27,-30.02 -6.13,-11.63 -9.17,-26.34 -9.17,-43.48 0,-17.77 2.45,-33.06 7.96,-45.93 5.51,-12.87 12.85,-23.89 22.66,-33.07 9.8,-9.17 20.83,-16.54 33.68,-22.05 12.87,-5.51 26.34,-9.19 41.04,-12.26 14.08,-2.45 28.78,-3.68 44.09,-3.68 23.27,0 45.34,3.06 65.54,9.81 20.21,6.74 37.36,17.14 51.44,31.84 14.09,14.69 23.27,34.29 26.95,59.41l-35.52 0c-4.3,-17.76 -11.64,-31.24 -22.66,-41.64 -11.63,-10.41 -24.5,-17.77 -39.82,-22.05 -15.3,-4.29 -30.62,-6.74 -46.55,-6.74 -12.85,0 -25.72,1.23 -38.57,3.68 -12.87,3.06 -25.12,7.34 -36.14,13.47 -11.03,6.12 -20.21,14.09 -26.96,24.5 -6.73,10.41 -10.4,23.88 -10.4,39.81 0,15.91 3.68,28.78 10.4,39.19 6.75,10.42 15.32,18.38 26.34,24.5 10.42,6.13 22.66,11.64 36.15,15.93 17.77,5.51 36.74,10.4 55.73,14.7 18.98,4.28 37.36,9.79 54.5,15.3 12.26,3.68 23.89,8.57 34.3,14.08 10.41,6.13 19.59,13.49 27.56,21.44 7.96,7.97 14.08,17.15 18.36,27.57 4.3,10.4 6.75,22.66 6.75,35.51 0,22.67 -4.28,41.65 -12.26,56.96 -8.57,15.32 -20.21,28.17 -34.29,37.98 -14.09,9.79 -30.62,16.53 -48.38,20.83 -17.77,4.89 -36.76,6.73 -56.35,6.73z"/>
   <path class="fil0" d="M14250.18 4417.38l0 -401.16 -145.14 0 0 -31.84 325.21 0 0 31.84 -145.14 0 0 401.16 -34.92 0zm246.84 0l0 -433.01 282.96 0 0 31.84 -248.05 0 0 170.25 222.93 0 0 31.85 -222.93 0 0 167.2 248.05 0 0 31.85 -282.96 0zm370.54 0l0 -433.01 51.44 0 152.52 263.96 150.04 -263.96 50.22 0 0 433.01 -34.91 0 0 -393.82 -157.4 276.22 -17.15 0 -159.85 -276.22 0 393.82 -34.92 0zm666.36 4.89c-25.11,0 -49,-3.07 -71.66,-9.79 -23.27,-6.75 -43.48,-17.77 -60.63,-33.08 -17.16,-15.32 -29.4,-35.52 -36.76,-60.63l37.98 0c7.96,17.77 18.38,32.46 32.46,42.86 14.08,10.42 29.4,18.38 47.16,22.66 17.15,4.91 34.29,7.36 51.44,7.36 18.99,0 37.35,-3.06 55.12,-9.19 17.77,-5.51 31.84,-14.69 42.86,-26.95 11.04,-12.26 16.56,-28.17 16.56,-48.38 0,-15.93 -3.07,-28.78 -9.19,-38.58 -6.74,-9.79 -15.32,-17.77 -25.72,-23.89 -11.02,-5.52 -23.89,-10.41 -37.97,-14.7 -10.42,-3.06 -21.44,-6.11 -32.47,-9.17 -11.02,-2.46 -21.44,-4.9 -31.84,-7.98 -10.42,-3.06 -20.83,-6.12 -30.01,-9.18 -12.85,-3.67 -25.11,-7.96 -37.36,-13.47 -12.86,-5.52 -23.89,-12.26 -33.07,-20.21 -9.79,-7.96 -17.77,-18.38 -23.27,-30.02 -6.12,-11.63 -9.17,-26.34 -9.17,-43.48 0,-17.77 2.45,-33.06 7.96,-45.93 5.51,-12.87 12.85,-23.89 22.66,-33.07 9.81,-9.17 20.83,-16.54 33.68,-22.05 12.87,-5.51 26.34,-9.19 41.04,-12.26 14.08,-2.45 28.78,-3.68 44.09,-3.68 23.27,0 45.34,3.06 65.54,9.81 20.21,6.74 37.36,17.14 51.44,31.84 14.09,14.69 23.27,34.29 26.95,59.41l-35.52 0c-4.3,-17.76 -11.64,-31.24 -22.66,-41.64 -11.63,-10.41 -24.5,-17.77 -39.82,-22.05 -15.3,-4.29 -30.62,-6.74 -46.55,-6.74 -12.85,0 -25.72,1.23 -38.57,3.68 -12.86,3.06 -25.12,7.34 -36.14,13.47 -11.03,6.12 -20.21,14.09 -26.96,24.5 -6.72,10.41 -10.4,23.88 -10.4,39.81 0,15.91 3.69,28.78 10.4,39.19 6.75,10.42 15.32,18.38 26.34,24.5 10.42,6.13 22.66,11.64 36.15,15.93 17.77,5.51 36.74,10.4 55.73,14.7 18.98,4.28 37.36,9.79 54.5,15.3 12.26,3.68 23.89,8.57 34.3,14.08 10.41,6.13 19.59,13.49 27.56,21.44 7.96,7.97 14.08,17.15 18.36,27.57 4.3,10.4 6.75,22.66 6.75,35.51 0,22.67 -4.28,41.65 -12.26,56.96 -8.57,15.32 -20.21,28.17 -34.29,37.98 -14.09,9.79 -30.62,16.53 -48.38,20.83 -17.77,4.89 -36.76,6.73 -56.35,6.73z"/>
   <path class="fil0" d="M7599.88 1948.91c0,256.58 -81.16,452.94 -240.87,586.47 -159.71,136.14 -390.1,204.21 -685.95,204.21 -298.47,0 -528.87,-68.07 -688.58,-204.21 -162.33,-133.53 -243.49,-329.89 -243.49,-586.47l0 -1068.21 426.76 0 0 1102.24c0,99.5 18.31,175.43 52.36,227.8 34.03,54.97 89.02,91.63 159.71,109.95 70.68,20.96 170.17,31.42 293.23,31.42 123.05,0 222.54,-10.46 293.23,-31.42 70.68,-20.95 125.68,-57.61 159.71,-112.58 34.03,-52.36 49.74,-128.3 49.74,-225.17l0 -1102.24 424.14 0 0 1068.21zm269.67 358.7l1036.81 -1052.51 -1008.01 0 0 -374.4 1581.38 0 0 418.91 -1042.02 1039.42 1068.2 0 0 374.4 -1636.36 0 0 -405.82zm1929.6 -1426.91l437.24 0 0 1832.72 -437.24 0 0 -1832.72zm848.29 0l568.13 0 730.48 1018.47 172.8 246.11 10.47 0 -2.62 -240.87 0 -1023.71 424.15 0 0 1832.72 -544.58 0 -751.42 -1057.75 -175.42 -251.34 -10.47 0 2.63 251.34 0 1057.75 -424.15 0 0 -1832.72zm2738.6 390.1l0 371.79 871.85 0 0 377.01 -871.85 0 0 693.82 -426.76 0 0 -1832.72 1385.01 0 0 390.1 -958.25 0zm2241.16 1468.79c-206.83,0 -392.73,-39.27 -552.43,-115.18 -159.71,-75.93 -285.38,-183.28 -374.4,-324.66 -91.64,-141.37 -136.15,-306.33 -136.15,-497.45 0,-191.13 44.51,-358.7 136.15,-502.69 89.02,-144.01 214.69,-253.97 377.03,-329.88 159.7,-75.93 342.97,-115.2 549.8,-115.2 206.84,0 392.72,39.28 552.44,115.2 159.71,75.92 282.75,185.88 371.77,329.88 89.02,144 133.53,311.56 133.53,502.69 0,191.12 -44.52,356.08 -133.53,497.45 -91.63,141.38 -214.69,248.73 -374.4,324.66 -159.7,75.92 -342.97,115.18 -549.81,115.18zm0 -387.48c214.68,0 371.78,-44.51 471.27,-133.53 96.87,-86.4 146.61,-227.77 146.61,-421.51 0,-141.39 -20.94,-251.36 -65.44,-332.51 -44.52,-81.16 -109.96,-138.76 -198.99,-172.8 -89.02,-34.03 -206.84,-49.76 -353.45,-49.76 -146.62,0 -264.43,15.72 -353.45,49.76 -91.64,34.03 -157.08,91.64 -201.6,172.8 -44.51,81.15 -65.44,191.12 -65.44,332.51 0,144.01 20.94,256.57 65.44,337.74 44.52,81.17 109.96,136.14 198.99,167.57 89.02,34.03 206.84,49.74 356.07,49.74zm2301.37 387.48c-209.46,0 -395.34,-39.27 -555.05,-115.18 -162.33,-75.93 -288,-183.28 -377.03,-324.66 -91.63,-141.37 -136.14,-306.33 -136.14,-497.45 0,-193.75 41.89,-361.3 128.29,-505.31 86.4,-141.39 209.45,-251.35 369.16,-327.27 159.7,-75.93 350.83,-115.2 570.76,-115.2 274.91,0 494.84,65.44 662.41,193.74 164.93,130.91 267.05,324.64 306.31,578.61l-426.75 81.17 -5.25 -2.61c-20.94,-125.7 -47.11,-219.93 -81.15,-285.4 -34.04,-65.44 -83.78,-109.97 -151.86,-138.76 -70.69,-26.18 -170.17,-39.28 -303.71,-39.28 -159.7,0 -282.76,15.72 -371.77,49.76 -91.63,34.03 -154.47,91.64 -193.75,172.8 -39.27,81.15 -60.21,191.12 -60.21,332.51 0,144.01 20.95,253.95 60.21,335.11 39.29,81.17 104.73,136.16 196.36,170.19 89.03,34.03 212.07,49.74 369.17,49.74 133.53,0 233.01,-15.7 303.71,-44.51 70.7,-28.79 120.44,-73.32 154.48,-138.76 34.03,-65.45 60.22,-159.7 78.53,-282.76l5.25 -2.62 426.75 81.15c-39.27,256.59 -141.38,450.34 -306.31,578.63 -167.57,130.91 -387.5,196.35 -662.41,196.35zm2246.4 0c-206.84,0 -392.73,-39.27 -552.44,-115.18 -159.71,-75.93 -285.38,-183.28 -374.4,-324.66 -91.64,-141.37 -136.14,-306.33 -136.14,-497.45 0,-191.13 44.5,-358.7 136.14,-502.69 89.02,-144.01 214.69,-253.97 377.03,-329.88 159.71,-75.93 342.97,-115.2 549.81,-115.2 206.83,0 392.71,39.28 552.44,115.2 159.7,75.92 282.75,185.88 371.77,329.88 89.01,144 133.53,311.56 133.53,502.69 0,191.12 -44.53,356.08 -133.53,497.45 -91.64,141.38 -214.7,248.73 -374.4,324.66 -159.71,75.92 -342.98,115.18 -549.81,115.18zm0 -387.48c214.68,0 371.77,-44.51 471.27,-133.53 96.87,-86.4 146.61,-227.77 146.61,-421.51 0,-141.39 -20.95,-251.36 -65.44,-332.51 -44.53,-81.16 -109.97,-138.76 -199,-172.8 -89.02,-34.03 -206.83,-49.76 -353.44,-49.76 -146.63,0 -264.44,15.72 -353.46,49.76 -91.63,34.03 -157.08,91.64 -201.6,172.8 -44.51,81.15 -65.44,191.12 -65.44,332.51 0,144.01 20.94,256.57 65.44,337.74 44.52,81.17 109.97,136.14 199,167.57 89.01,34.03 206.83,49.74 356.07,49.74zm1350.96 -1471.41l722.63 0 377.01 1073.45 115.2 374.4 115.2 -374.4 374.4 -1073.45 719.99 0 0 1832.72 -408.43 0 0 -1068.22 5.23 -369.17 -10.46 0 -133.53 369.17 -397.95 1068.22 -528.87 0 -400.58 -1068.22 -130.93 -369.17 -10.46 0 2.63 369.17 0 1068.22 -411.07 0 0 -1832.72z"/>
   <path class="fil1" d="M4809.93 0l-4178.13 0c-347.5,0 -631.8,284.29 -631.8,631.8l0 140.45c114.29,17.47 241.2,51.2 378.69,99.96 432.93,153.6 971.96,457.17 1550.72,876.29 470.37,-350.42 903.2,-601.12 1254.3,-725.56 342.94,-121.57 609.14,-122.98 758.03,20.01 168.67,161.88 161.9,485.58 11.46,909.54 -153.67,432.95 -457.22,971.98 -876.31,1550.72 350.46,470.38 601.09,903.25 725.52,1254.36 6.33,17.66 12.21,35.07 17.82,52.33l357.89 0c347.49,0 631.8,-284.24 631.8,-631.74l0 -4178.18zm-4809.93 2652.71l0 1525.4c0,236.37 131.53,443.41 325,551.68 147.45,4.34 325.88,-31.84 528.79,-104.81 413.65,-148.59 928.29,-449.57 1491.08,-870.99 4.44,-3.39 10.87,-2.44 14.31,2.02 3.1,4.16 2.55,10.04 -1.13,13.58l0 0c-158.54,151.18 -316.5,294.22 -472.34,428.3 -158.67,136.47 -315.25,263.73 -468.16,380.77l-0.07 0.07 -89.26 67.44 -0.04 0.05 -0.11 0.07 -0.07 0.05c-76.74,57.24 -152.51,111.81 -227.22,163.52l1950.35 0c144.42,-166.28 136.24,-459.44 0.13,-838.3 -148.63,-413.64 -449.63,-928.26 -871.04,-1491.1 -3.4,-4.46 -2.48,-10.95 2.01,-14.33 4.18,-3.1 10.05,-2.54 13.55,1.13l0.05 0c151.16,158.56 294.28,316.55 428.37,472.39 132.62,154.21 256.54,306.46 370.9,455.32 198.01,-386.13 325.73,-728.62 371.34,-1005.18 44.05,-267.33 11.4,-472.57 -108.7,-595.27 -161.77,-165.2 -464.11,-162.67 -860,-20.4 -413.65,148.63 -928.22,449.55 -1491.05,870.99 -4.47,3.37 -10.87,2.48 -14.34,-2.04 -3.08,-4.16 -2.52,-10.04 1.18,-13.53l-0.03 0c158.49,-151.1 316.38,-294.16 472.16,-428.13 154.22,-132.73 306.64,-256.67 455.53,-371.07 -386.13,-198.02 -728.62,-325.8 -1005.16,-371.41 -267.38,-44.1 -472.59,-11.44 -595.29,108.7 -165.26,161.78 -162.65,464.13 -20.4,859.94 148.58,413.65 449.57,928.28 870.99,1491.01 3.41,4.5 2.42,10.94 -2.09,14.33 -4.11,3.15 -9.99,2.59 -13.53,-1.14l0 0.07c-151.11,-158.51 -294.1,-316.39 -428.12,-472.18 -136.51,-158.72 -263.84,-315.36 -380.89,-468.34l-0.06 -0.05 -67.47 -89.26 -0.08 -0.05 -0.03 -0.12 -0.09 -0.06c-62.92,-84.3 -122.57,-167.41 -178.95,-249.06z"/>
  </g>
 </g>
</svg>
